<?xml version="1.0" encoding="UTF-8"?>
<svg width="470px" height="470px" viewBox="0 0 470 470" version="1.1" xmlns="http://www.w3.org/2000/svg" xmlns:xlink="http://www.w3.org/1999/xlink">
    <!-- Generator: Sketch 62 (91390) - https://sketch.com -->
    <title>Group</title>
    <desc>Created with Sketch.</desc>
    <g id="Page-1" stroke="none" stroke-width="1" fill="none" fill-rule="evenodd">
        <g id="Button-Black" transform="translate(-15.000000, -15.000000)" fill="#1A1919">
            <g id="Group" transform="translate(15.000300, 15.000200)">
                <path d="M234.549,430.576 C126.458,430.576 38.522,342.637 38.522,234.549 C38.522,126.462 126.458,38.522 234.549,38.522 C342.636,38.522 430.572,126.462 430.572,234.549 C430.572,342.637 342.636,430.576 234.549,430.576 M234.549,0 C105.008,0 0,105.009 0,234.549 C0,364.09 105.008,469.095 234.549,469.095 C364.086,469.095 469.094,364.09 469.094,234.549 C469.094,105.009 364.086,0 234.549,0" id="Fill-1"></path>
                <path d="M354.6442,255.407 L323.4642,234.549 L354.6442,213.692 L354.6442,255.407 Z M247.0112,343.819 L247.0112,285.686 L301.0462,249.548 L344.6652,278.72 L247.0112,343.819 Z M234.5492,264.035 L190.4652,234.549 L234.5492,205.063 L278.6292,234.549 L234.5492,264.035 Z M222.0832,343.819 L124.4282,278.72 L168.0512,249.548 L222.0832,285.686 L222.0832,343.819 Z M114.4502,213.692 L145.6332,234.549 L114.4502,255.407 L114.4502,213.692 Z M222.0832,125.279 L222.0832,183.412 L168.0512,219.558 L124.4282,190.377 L222.0832,125.279 Z M247.0112,125.279 L344.6652,190.377 L301.0462,219.558 L247.0112,183.412 L247.0112,125.279 Z M379.4612,188.737 C379.4352,188.554 379.3892,188.379 379.3592,188.196 C379.2972,187.844 379.2332,187.493 379.1412,187.15 C379.0872,186.944 379.0112,186.746 378.9472,186.548 C378.8472,186.242 378.7482,185.937 378.6262,185.64 C378.5412,185.434 378.4432,185.228 378.3482,185.03 C378.2172,184.747 378.0812,184.472 377.9242,184.206 C377.8102,184.007 377.6882,183.816 377.5702,183.626 C377.4022,183.366 377.2302,183.114 377.0422,182.87 C376.9062,182.687 376.7612,182.504 376.6162,182.328 C376.4172,182.1 376.2112,181.871 375.9942,181.657 C375.8312,181.49 375.6692,181.322 375.4982,181.169 C375.2692,180.963 375.0332,180.764 374.7922,180.574 C374.6062,180.429 374.4222,180.284 374.2282,180.147 C374.1552,180.101 374.0912,180.04 374.0222,179.994 L241.4602,91.62 C237.2732,88.828 231.8212,88.828 227.6332,91.62 L95.0722,179.994 C95.0032,180.04 94.9382,180.101 94.8662,180.147 C94.6712,180.284 94.4882,180.429 94.3052,180.574 C94.0612,180.764 93.8242,180.963 93.6002,181.169 C93.4242,181.322 93.2642,181.49 93.1002,181.657 C92.8832,181.871 92.6772,182.1 92.4822,182.328 C92.3332,182.504 92.1882,182.687 92.0512,182.87 C91.8682,183.114 91.6922,183.366 91.5282,183.626 C91.4022,183.816 91.2842,184.007 91.1702,184.206 C91.0172,184.472 90.8802,184.747 90.7462,185.03 C90.6512,185.228 90.5522,185.434 90.4682,185.64 C90.3462,185.937 90.2472,186.242 90.1472,186.548 C90.0822,186.746 90.0102,186.944 89.9532,187.15 C89.8612,187.493 89.8002,187.844 89.7352,188.196 C89.7052,188.379 89.6592,188.554 89.6362,188.737 C89.5632,189.271 89.5222,189.813 89.5222,190.362 L89.5222,278.736 C89.5222,279.285 89.5632,279.827 89.6362,280.369 C89.6592,280.545 89.7052,280.727 89.7352,280.902 C89.8002,281.254 89.8612,281.604 89.9532,281.948 C90.0102,282.154 90.0822,282.352 90.1472,282.551 C90.2472,282.855 90.3462,283.161 90.4682,283.466 C90.5522,283.673 90.6512,283.871 90.7462,284.069 C90.8802,284.35 91.0172,284.625 91.1702,284.9 C91.2842,285.092 91.4022,285.281 91.5282,285.472 C91.6922,285.732 91.8682,285.984 92.0512,286.228 C92.1882,286.419 92.3332,286.594 92.4822,286.769 C92.6772,286.998 92.8832,287.227 93.1002,287.441 C93.2642,287.608 93.4242,287.776 93.6002,287.928 C93.8242,288.136 94.0612,288.334 94.3052,288.524 C94.4882,288.67 94.6712,288.814 94.8662,288.951 C94.9382,288.997 95.0032,289.058 95.0722,289.103 L227.6332,377.478 C229.7272,378.874 232.1382,379.576 234.5492,379.576 C236.9562,379.576 239.3662,378.874 241.4602,377.478 L374.0222,289.103 C374.0912,289.058 374.1552,288.997 374.2282,288.951 C374.4222,288.814 374.6062,288.67 374.7922,288.524 C375.0332,288.334 375.2692,288.136 375.4982,287.928 C375.6692,287.776 375.8312,287.608 375.9942,287.441 C376.2112,287.227 376.4172,286.998 376.6162,286.769 C376.7612,286.594 376.9062,286.419 377.0422,286.228 C377.2302,285.984 377.4022,285.732 377.5702,285.472 C377.6882,285.281 377.8102,285.092 377.9242,284.9 C378.0812,284.625 378.2172,284.35 378.3482,284.069 C378.4432,283.871 378.5412,283.673 378.6262,283.466 C378.7482,283.161 378.8472,282.855 378.9472,282.551 C379.0112,282.352 379.0872,282.154 379.1412,281.948 C379.2332,281.604 379.2972,281.254 379.3592,280.902 C379.3892,280.727 379.4352,280.545 379.4612,280.369 C379.5302,279.827 379.5732,279.285 379.5732,278.736 L379.5732,190.362 C379.5732,189.813 379.5302,189.271 379.4612,188.737 L379.4612,188.737 Z" id="Fill-3"></path>
            </g>
        </g>
    </g>
</svg>