<svg id="bc08ce57-76dc-4f5a-a5d7-3e43f27c0f73" data-name="mise" xmlns="http://www.w3.org/2000/svg" viewBox="0 0 387.08 318.98"><g id="a23f46d1-09be-4f32-ae00-5180ec232691" data-name="head"><g id="aa0ea72c-e5d8-4c33-904a-465994e3bb0d" data-name="head_bg"><path d="M293.18,95s69,175,3,204S242.18,176,293.18,95Z"/><path d="M185.68,293.54S170.81,98.84,133.74,80.69c0,0-126.56,184.35-13.56,195.35"/><path d="M292.18,134c0,54.67-33.58,112-75,112s-75-57.33-75-112,33.58-98,75-98S292.18,79.36,292.18,134Z" style="fill:#f4eee8"/><ellipse cx="234.43" cy="117.52" rx="4.45" ry="8" transform="translate(65.77 318.32) rotate(-76.6)" style="fill:#fff"/></g><g id="fc661dce-c118-4b05-b6b0-eb2920c1def8" data-name="hair"><path d="M240.18,35s-27,52-101,96c0,0-51-116.23,44-116C198.68,15.07,218.18,13,240.18,35Z"/><path d="M220,39.38S247.18,104,292.18,134c0,0,30-35-2-80S220,39.38,220,39.38Z"/></g><g id="ec318d08-fc47-4a20-bec2-1e1b61b9b16d" data-name="nose"><path d="M218.68,171.54s1,1-5,3-10-3-12-6,5-14,7-35c.86-9-3-23-8-29-8.32-10-49.08,3.55-49.08,3.55s36.56-14.16,47.08-9.55c4.12,1.8,12.87,7.18,11,37-1,16-6.42,22.17-7,32C202.68,167.54,207.68,179.54,218.68,171.54Z" style="stroke:#000;stroke-linecap:round;stroke-linejoin:round"/></g><g id="fcf4a059-ebbb-4cad-83f5-563926f9a474" data-name="eye-right"><path d="M247,119.65c1.08,2.35,1.16-2.89,1.16-2.89-13.29-8.09-29.47-3.47-29.47-3.47S243.68,112.54,247,119.65Z" style="stroke:#000;stroke-linecap:round;stroke-linejoin:round"/><path d="M232.11,111.88s-1.91,6-1.91,7.77.57,2.89,2.31,2.89a4.94,4.94,0,0,0,4.62-5.78C236.55,112.71,235.17,111.62,232.11,111.88Z"/></g><g id="bb57afdc-4872-461f-b651-bfa94678a5f6" data-name="eye-left"><ellipse cx="172.43" cy="118.52" rx="4.45" ry="8" transform="translate(53.58 290.71) rotate(-89.89)" style="fill:#fff"/><path d="M169,114.48s-2.93,6.32,0,8.06,5.78,4,6.93,0,.52-7.88-2.34-8.28A10.4,10.4,0,0,0,169,114.48Z"/><path d="M158,116.76c4.62-2.31,12.71-2.89,20.8-2.89s12.14,3.47,12.14,3.47S182.24,104,158,116.76" style="stroke:#000;stroke-linecap:round;stroke-linejoin:round"/></g><g id="b734f060-e43f-4893-b805-83b95fa384f6" data-name="lashes-right"><path d="M243.14,115.79s6.44-2.36,8-6.2,2.41,7.58-5.11,7.18C243.35,116.62,243.14,115.79,243.14,115.79Z" style="stroke:#000;stroke-linecap:round;stroke-linejoin:round;stroke-width:0.7054039835929871px"/><path d="M237.65,112.94s4.7-1.51,5.48-4.71l.77-3.19s3.23,9.81-1.76,8.75C240,113.34,237.65,112.94,237.65,112.94Z" style="stroke:#000;stroke-linecap:round;stroke-linejoin:round;stroke-width:0.7054039835929871px"/></g><g id="b673cf82-e5ce-409c-b88c-4dfbd78d9cd7" data-name="glasses"><path d="M194.68,114.54s13.65-7.67,20,1c0,0-5-14-20-1" style="fill:#f99608;stroke:#f99608;stroke-linecap:round;stroke-linejoin:round;stroke-width:1.0285030603408813px"/><path d="M262.7,118.59c1.95-.94,4.2-.51,6.17.12a47.56,47.56,0,0,1,7.21,3.24c4,2.06,8.87,5.08,13.6,4.45,1.09-.14,1.11-1.88,0-1.73a13.4,13.4,0,0,1-6.8-1.35c-2.61-1.08-5.08-2.46-7.61-3.72-3.94-2-9-4.63-13.45-2.5-1,.48-.12,2,.88,1.49Z" style="fill:#f99608"/><path d="M175.17,102.7c-13.71-1.74-25.94,6.74-27.31,18.92s8.62,23.46,22.33,25.19,25.94-6.74,27.32-18.92S188.88,104.43,175.17,102.7ZM172.68,147c-10.73,0-26-14.32-23.7-25.21,2.7-12.87,12.61-19.82,25.7-18.16s21,8.46,21.71,24.15C196.88,138.9,185.87,146.93,172.68,147Z" style="fill:#f99608;stroke:#f99608;stroke-linecap:round;stroke-linejoin:round;stroke-width:1.0285030603408813px"/><path d="M237.87,144c13.8.55,25.35-8.73,25.79-20.73s-10.37-22.18-24.17-22.73-25.34,8.73-25.79,20.74S224.08,143.46,237.87,144Zm-.87-43.4c10.69-.93,27,11.8,25.54,22.62-1.72,12.79-11.07,20.39-24.25,19.86s-21.57-6.51-23.46-21.76C213.49,110.49,223.86,101.74,237,100.61Z" style="fill:#f99608;stroke:#f99608;stroke-linecap:round;stroke-linejoin:round;stroke-width:1.0176138877868652px"/></g></g><g id="ec0f2723-ff59-41fe-9f85-5090e5e7ed77" data-name="arms"><path d="M114.54,239.51s15.12,11.27,5.63,23.65-98.49,47.38-98.49,47.38-13,10-19,1,0-13,10-20,89.71-62.06,101.86-52" style="stroke:#fff;stroke-miterlimit:10;stroke-width:0.577889680862427px"/><path d="M283.68,232.54s-17,7-2,19,44,30,57,40,19,26,28,26,24-6,17-16-32-25-50-45S296.68,219.54,283.68,232.54Z" style="stroke:#fff;stroke-miterlimit:10;stroke-width:0.577889680862427px"/><path d="M305.86,233.32A21.75,21.75,0,0,1,295,251a1.5,1.5,0,0,0,1.51,2.59,24.84,24.84,0,0,0,12.31-20.31c.08-1.93-2.92-1.93-3,0Z" style="fill:#fff"/><path d="M320.59,246a26.21,26.21,0,0,1-21.91,15.76c-1.91.14-1.93,3.14,0,3a29.32,29.32,0,0,0,24.8-18,1.5,1.5,0,0,0-2.89-.8Z" style="fill:#fff"/><path d="M334.78,259.82c-.78,7.69-8.19,13.89-15.83,13.63-1.93-.07-1.93,2.93,0,3,9.4.32,17.89-7.36,18.83-16.63a1.51,1.51,0,0,0-1.5-1.5,1.53,1.53,0,0,0-1.5,1.5Z" style="fill:#fff"/><path d="M349.28,273c.16-.38,0,0,0,0l-.14.28c-.08.17-.17.34-.26.5a9.6,9.6,0,0,1-.6,1l-.15.21c-.19.27.17-.21,0,0l-.4.48a10.06,10.06,0,0,1-.8.8l-.43.37a1.56,1.56,0,0,1-.2.16c.33-.18.06,0,0,0-.31.22-.62.43-.95.62s-.67.35-1,.52.26-.11,0,0l-.29.11-.58.19a1.5,1.5,0,0,0,.79,2.9,12.72,12.72,0,0,0,8-7.37,1.51,1.51,0,0,0-1.05-1.85,1.55,1.55,0,0,0-1.84,1.05Z" style="fill:#fff"/><path d="M99.92,241.33c-1,5.88-1,12.09,1.23,17.7A20.92,20.92,0,0,0,111,270.2c1.73.85,3.25-1.74,1.52-2.59-9.43-4.66-11.28-16-9.73-25.48.31-1.89-2.58-2.7-2.89-.8Z" style="fill:#fff"/><path d="M78.81,251.3c-.36,5.54-.61,11.36,1.58,16.58,1.78,4.24,5.08,7.86,9.58,9.16a1.5,1.5,0,0,0,.8-2.89c-3.81-1.1-6.55-4.41-7.87-8-1.72-4.72-1.41-9.87-1.09-14.8.13-1.92-2.87-1.92-3,0Z" style="fill:#fff"/><path d="M53.59,263.94a13.41,13.41,0,0,0,7.65,15.79,1.5,1.5,0,0,0,1.84-1.05,1.54,1.54,0,0,0-1-1.85c-4.53-1.9-6.9-7.55-5.55-12.09.55-1.85-2.35-2.65-2.9-.8Z" style="fill:#fff"/><path d="M34.19,276.67a10.52,10.52,0,0,0,5.23,9.23,1.51,1.51,0,0,0,2-.54,1.52,1.52,0,0,0-.53-2.05c-.18-.1-.35-.2-.51-.31l-.2-.13s-.3-.22-.13-.09-.09-.08-.12-.1l-.23-.2c-.13-.11-.26-.24-.38-.36s-.28-.29-.4-.43l-.19-.23c-.15-.16.2.28,0,0a10.74,10.74,0,0,1-.61-.94c-.09-.16-.17-.32-.25-.48s-.08-.18-.13-.26.13.33,0,0-.25-.7-.35-1.06l-.12-.52c0-.09,0-.19,0-.29s0,.29,0,0a11.52,11.52,0,0,1-.05-1.18,1.52,1.52,0,0,0-1.5-1.5,1.54,1.54,0,0,0-1.5,1.5Z" style="fill:#fff"/></g><g id="f799337e-d561-4049-ad67-4fa747bb1f7b" data-name="arm-r"><path d="M379.68,296.54s16,15,0,19c-11.63,2.9-21,3-33-1s-84-23-84-23-12-11,0-19c0,0,39.21,1.3,49,2S365.68,281.54,379.68,296.54Z" style="stroke:#fff;stroke-miterlimit:10;stroke-width:0.577889680862427px"/><path d="M376.25,296.7c.75,4,1.58,8.34.25,12.31a8.4,8.4,0,0,1-6.29,5.92c-1.9.32-1.09,3.21.8,2.89,3.94-.66,6.8-3.89,8.19-7.47,1.78-4.6.82-9.76-.05-14.45-.36-1.89-3.25-1.09-2.9.8Z" style="fill:#fff"/><path d="M363.37,288.35c2,5.26,4.14,10.8,3.81,16.53-.25,4.43-2.21,9-6.14,11.29a1.5,1.5,0,0,0,1.51,2.59c4.57-2.69,6.95-7.66,7.54-12.79.73-6.34-1.62-12.59-3.83-18.42-.68-1.79-3.58-1-2.89.8Z" style="fill:#fff"/><path d="M346.52,281.69c4,4.86,6.8,11,6.66,17.34-.13,5.55-2.7,11.17-7.41,14.27-1.6,1.06-.1,3.66,1.52,2.59a20.61,20.61,0,0,0,8.87-16.49c.3-7.32-3-14.27-7.52-19.83-1.22-1.5-3.33.63-2.12,2.12Z" style="fill:#fff"/><path d="M329.42,277.43a31.78,31.78,0,0,1,7.89,18c.27,2.9.3,6.49-2.1,8.57-2.2,1.9-5.39,2.34-7.89,3.75a1.5,1.5,0,0,0,1.52,2.59c3-1.67,6.62-2.13,9-4.72s2.77-6.37,2.5-9.78a35.19,35.19,0,0,0-8.81-20.57c-1.28-1.45-3.39.68-2.12,2.12Z" style="fill:#fff"/><path d="M313.37,276.38c2.55,5.13,6.32,9.92,7.23,15.71.69,4.34-1.14,10.33-6.23,11a1.56,1.56,0,0,0-1.5,1.5,1.5,1.5,0,0,0,1.5,1.5c6-.78,9.53-6.45,9.39-12.19-.17-7.13-4.75-12.91-7.8-19-.86-1.72-3.45-.21-2.59,1.52Z" style="fill:#fff"/></g><g id="af24f247-13b8-4899-8b7d-a7824bb55f80" data-name="arm-l"><path d="M12.68,291.54s-18,5-10,20c10.87,20.37,117-25,117-25s11,2,11-3,1.18-15.24-8-12S60.68,269.54,12.68,291.54Z" style="stroke:#fff;stroke-miterlimit:10;stroke-width:0.577889680862427px"/><path d="M21,287.51c-.94,5.95-.79,12.11,1.76,17.66a19.15,19.15,0,0,0,10.92,10.22c1.83.64,2.61-2.26.8-2.89-9.82-3.44-12-15.1-10.58-24.19.3-1.89-2.59-2.7-2.9-.8Z" style="fill:#fff"/><path d="M8.6,292.66a25.57,25.57,0,0,0,8,24.5c1.45,1.26,3.58-.85,2.12-2.12a22.57,22.57,0,0,1-7.24-21.58c.42-1.88-2.47-2.69-2.89-.8Z" style="fill:#fff"/><path d="M39.59,281.33c-2.58,11.14,4.59,20.74,11.18,28.9,1.21,1.5,3.32-.64,2.12-2.12-5.84-7.24-12.71-16.05-10.41-26,.44-1.88-2.45-2.68-2.89-.79Z" style="fill:#fff"/><path d="M62.39,277.24a37.09,37.09,0,0,0,7.12,26.51c1.15,1.53,3.75,0,2.59-1.51a34.6,34.6,0,0,1-6.71-25c.23-1.91-2.78-1.9-3,0Z" style="fill:#fff"/><path d="M87,275c5.3,4.87,1.57,14.67,6.73,19.68"/><path d="M104.59,273.86a29.32,29.32,0,0,0,3.14,15.9c.88,1.72,3.46.2,2.59-1.52a26.32,26.32,0,0,1-2.73-14.38,1.51,1.51,0,0,0-1.5-1.5,1.53,1.53,0,0,0-1.5,1.5Z" style="fill:#fff"/></g><g id="b86f5c81-8c49-4a71-a7d4-8ab7fa830fcb" data-name="laptop"><path d="M109.48,185.53s-6.35-1.74-4.62,6.36S115.26,287,114.68,302v9.82c0,1.16,2.31,5.2,7.52,5.2s110.85,1.59,123,1,38.91-.58,47,0,10.32-10.58,9.74-16.36-6.94-56.63-8.09-79.74,1.15-38.72-9.25-39.88-85.53-1.73-119.62,1.73S114.68,186.11,109.48,185.53Z" style="fill:#fff"/><path d="M195.59,235.8s-7.52,0-5.78,8.1,13.87,9.82,16.18,3.46S208.3,234.65,195.59,235.8Z"/><path d="M201.94,218.47s-7.51,4.62-5.2,11,6.36,0,6.36,0S205.41,227.14,201.94,218.47Z"/></g></svg>