<svg xmlns="http://www.w3.org/2000/svg" viewBox="0 0 387.08 318.98"><g id="e9ef77ee-7350-480d-a80c-e5b91662ab27" data-name="wave-head-bg"><polygon points="165.18 221.03 162.18 317.04 270.18 317.04 262.18 209.03 165.18 221.03"/><path d="M293.18,95s67,185,1,214S242.18,176,293.18,95Z"/><path d="M185.68,293.54S170.81,98.84,133.74,80.69c0,0-121.55,216.68-9.56,235.35C124.18,316,180.18,323,185.68,293.54Z"/><ellipse cx="234.43" cy="117.52" rx="4.45" ry="8" transform="translate(65.77 318.32) rotate(-76.6)" style="fill:#fff"/></g><g id="b44ef0a1-106e-4b2e-a72f-dfd9f89fe33b" data-name="wave-body"><path d="M200.24,272.83s-53.5,5.5-63.5,49.5,149,6,149,6-1-47.19-49-52.59h0l-36.5-2.91" style="stroke:#fff;stroke-miterlimit:10;stroke-width:0.577889680862427px"/><path d="M279.34,303.76c-14,10.47-31.27,15.66-48.63,16.58-18.64,1-37.13-3-54.58-9.33a268.52,268.52,0,0,1-29.92-13.24c-1.72-.87-3.24,1.71-1.51,2.59,17.55,8.93,35.94,16.71,55.34,20.57,17.88,3.56,36.59,3.64,54.18-1.5a83.82,83.82,0,0,0,26.63-13.08c1.53-1.14,0-3.75-1.51-2.59Z" style="fill:#fff"/><path d="M185.91,278.43c2.23,3.82,6.11,6,10.05,7.75a112.35,112.35,0,0,0,14.64,5.33c9.07,2.52,18.94,3.24,27.85-.28a27.89,27.89,0,0,0,11.8-8.45c1.19-1.5-.92-3.64-2.12-2.13-5,6.33-12.93,9.5-20.86,10-9.57.55-18.92-2.56-27.66-6.13-4.12-1.68-8.76-3.53-11.1-7.57a1.51,1.51,0,0,0-2.6,1.52Z" style="fill:#fff"/><path d="M164.33,287.61a113.52,113.52,0,0,0,40.44,18.21c13.93,3.18,29.11,3.66,42.61-1.6a49.85,49.85,0,0,0,19.49-13.58c1.26-1.45-.85-3.58-2.13-2.12-9.14,10.45-22.17,15.76-35.87,16.55-14.4.82-29-2.62-42.12-8.3A113.91,113.91,0,0,1,165.84,285c-1.57-1.13-3.07,1.47-1.51,2.59Z" style="fill:#fff"/><path d="M205.77,245.33s5.47,25.5-5.53,27.5,26,25.81,36.5,2.91c0,0-18.5.09-11.5-34.91Z" style="fill:#f4eee8"/></g><g id="adba1a28-0637-45d0-a12b-7ae0fa33d058" data-name="mise"><g id="ed47c159-a848-4fcf-a24f-4cf3d008c558" data-name="wave-head"><g id="b557f27e-022f-4394-b228-fd5ddfbe9972" data-name="wave-hair"><path d="M292.18,134c0,54.67-33.58,112-75,112s-75-57.33-75-112,33.58-98,75-98S292.18,79.36,292.18,134Z" style="fill:#f4eee8"/><path d="M240.18,35s-27,52-101,96c0,0-51-116.23,44-116C198.68,15.07,218.18,13,240.18,35Z"/><path d="M220,39.38S247.18,104,292.18,134c0,0,30-35-2-80S220,39.38,220,39.38Z"/></g><g id="e56f8155-774c-482f-ae62-d96317f84827" data-name="wave-nose"><path d="M218.68,171.54s1,1-5,3-10-3-12-6,5-14,7-35c.86-9-3-23-8-29-8.32-10-49.08,3.55-49.08,3.55s36.56-14.16,47.08-9.55c4.12,1.8,12.87,7.18,11,37-1,16-6.42,22.17-7,32C202.68,167.54,207.68,179.54,218.68,171.54Z" style="stroke:#000;stroke-linecap:round;stroke-linejoin:round"/><path d="M233.18,192s1,19-12,19C221.18,211,237.18,221,233.18,192Z" style="stroke:#000;stroke-linecap:round;stroke-miterlimit:10"/></g><g id="b80f2b49-f8ae-452e-b4ce-2350e0f37ec5" data-name="wave-eye-right"><path d="M247,119.65c1.08,2.35,1.16-2.89,1.16-2.89-13.29-8.09-29.47-3.47-29.47-3.47S243.68,112.54,247,119.65Z" style="stroke:#000;stroke-linecap:round;stroke-linejoin:round"/><path d="M232.11,111.88s-1.91,6-1.91,7.77.57,2.89,2.31,2.89a4.94,4.94,0,0,0,4.62-5.78C236.55,112.71,235.17,111.62,232.11,111.88Z"/></g><g id="b629b158-a96f-4636-ad3e-1b3136685ec7" data-name="wave-eye-left"><ellipse cx="172.43" cy="118.52" rx="4.45" ry="8" transform="translate(53.58 290.71) rotate(-89.89)" style="fill:#fff"/><path d="M169,114.48s-2.93,6.32,0,8.06,5.78,4,6.93,0,.52-7.88-2.34-8.28A10.4,10.4,0,0,0,169,114.48Z"/><path d="M158,116.76c4.62-2.31,12.71-2.89,20.8-2.89s12.14,3.47,12.14,3.47S182.24,104,158,116.76" style="stroke:#000;stroke-linecap:round;stroke-linejoin:round"/></g><g id="e5a9e451-b995-4d54-b3a0-e2f592381ed1" data-name="wave-lashes-right"><path d="M243.14,115.79s6.44-2.36,8-6.2,2.41,7.58-5.11,7.18C243.35,116.62,243.14,115.79,243.14,115.79Z" style="stroke:#000;stroke-linecap:round;stroke-linejoin:round;stroke-width:0.7054039835929871px"/><path d="M237.65,112.94s4.7-1.51,5.48-4.71l.77-3.19s3.23,9.81-1.76,8.75C240,113.34,237.65,112.94,237.65,112.94Z" style="stroke:#000;stroke-linecap:round;stroke-linejoin:round;stroke-width:0.7054039835929871px"/></g><g id="aff8815f-d858-4ab4-b31d-755e3b105d91" data-name="glasses"><path d="M194.68,114.54s13.65-7.67,20,1c0,0-5-14-20-1" style="fill:#f99608;stroke:#f99608;stroke-linecap:round;stroke-linejoin:round;stroke-width:1.0285030603408813px"/><path d="M262.7,118.59c1.95-.94,4.2-.51,6.17.12a47.56,47.56,0,0,1,7.21,3.24c4,2.06,8.87,5.08,13.6,4.45,1.09-.14,1.11-1.88,0-1.73a13.4,13.4,0,0,1-6.8-1.35c-2.61-1.08-5.08-2.46-7.61-3.72-3.94-2-9-4.63-13.45-2.5-1,.48-.12,2,.88,1.49Z" style="fill:#f99608"/><path d="M175.17,102.7c-13.71-1.74-25.94,6.74-27.31,18.92s8.62,23.46,22.33,25.19,25.94-6.74,27.32-18.92S188.88,104.43,175.17,102.7ZM172.68,147c-10.73,0-26-14.32-23.7-25.21,2.7-12.87,12.61-19.82,25.7-18.16s21,8.46,21.71,24.15C196.88,138.9,185.87,146.93,172.68,147Z" style="fill:#f99608;stroke:#f99608;stroke-linecap:round;stroke-linejoin:round;stroke-width:1.0285030603408813px"/><path d="M237.87,144c13.8.55,25.35-8.73,25.79-20.73s-10.37-22.18-24.17-22.73-25.34,8.73-25.79,20.74S224.08,143.46,237.87,144Zm-.87-43.4c10.69-.93,27,11.8,25.54,22.62-1.72,12.79-11.07,20.39-24.25,19.86s-21.57-6.51-23.46-21.76C213.49,110.49,223.86,101.74,237,100.61Z" style="fill:#f99608;stroke:#f99608;stroke-linecap:round;stroke-linejoin:round;stroke-width:1.0176138877868652px"/></g></g><g id="fdb81d84-ed1b-4f06-98ce-ed2bd7919077" data-name="wave-arm"><path d="M142.68,236.79s-2.24-9.28,3.38-13.64,9.62-8.3,9.62-16.36c0-2.5-.8-7.95-2-5.25s-2,10.35-2,7c0-2,1-5.26,1-9,0-6-8-14-12-14.75-9.06-1.69-13.15,13.8-12.07,20.9s9.07,23.1,7.07,31.1S142.68,236.79,142.68,236.79Z" style="fill:#f4eee8;stroke:#000;stroke-linecap:round;stroke-linejoin:round;stroke-width:0.577889680862427px"/><path d="M146.68,232.79s8.18,118.87-14.61,122.58c-16.78,2.73-15.7-15.92-15.7-15.92-5.33-52.53,15.55-100.89,16.57-110.57C132.94,228.88,137.17,233.56,146.68,232.79Z" style="stroke:#fff;stroke-miterlimit:10;stroke-width:0.577889680862427px"/><path d="M115.48,310.74c9.55,5.95,20.92,2.34,30.61-1.2,1.8-.66,1-3.56-.8-2.9-8.87,3.25-19.5,7-28.3,1.51-1.64-1-3.15,1.57-1.51,2.59Z" style="fill:#fff"/><path d="M118.6,287.67a37.43,37.43,0,0,0,27.77,1.91c1.83-.6,1-3.49-.8-2.89a34.31,34.31,0,0,1-25.45-1.61c-1.73-.84-3.26,1.75-1.52,2.59Z" style="fill:#fff"/><path d="M123.93,265.07a25.07,25.07,0,0,0,22.32,0c1.73-.86.21-3.45-1.52-2.59a21.87,21.87,0,0,1-19.28,0c-1.73-.85-3.25,1.73-1.52,2.59Z" style="fill:#fff"/><path d="M129,246.63a29.74,29.74,0,0,0,16.44,2.26,1.51,1.51,0,0,0,1-1.84,1.54,1.54,0,0,0-1.85-1.05,26,26,0,0,1-14.12-2,1.56,1.56,0,0,0-2.06.54,1.52,1.52,0,0,0,.54,2Z" style="fill:#fff"/></g></g></svg>