<svg xmlns="http://www.w3.org/2000/svg" viewBox="0 0 387.08 295.34"><g id="a0dd68b6-6059-40ac-8c2c-610d9f4f89bc" data-name="head_bg"><path d="M192.68,33.79s56-12,80,24,27,106,28,128-62,59-94,57-83-10-98-64S99.68,47.79,192.68,33.79Z" style="fill:#fff"/></g><g id="a45bf854-d924-44f0-b9e2-55d11cf1a68b" data-name="mise"><g id="ea611369-067f-4f5b-8fd8-9bfb872e1ae1" data-name="head"><g id="a5347c9e-160f-4363-ac6e-55c443e48f41" data-name="hair"><path d="M206,37.74s8.09-12.14-.58-20.23-15.6-22-41.61-15.6S83.48,18.09,66.14,66.63,55.74,212.84,55.74,225s1.15,68.77-3.47,69.93c-.89.22,17.81,62.26,33.91,62.39,52.53.42,177.33,14.7,229-4,15.17-5.49,13.5-57.5,13.5-57.5s-116-48.43-177.5-96.5C120.65,175.43,121.61,139,121,133.67c-1.73-16.18-4.05-46.23,9.82-55.48S206.57,44.67,206,37.74Z"/><path d="M230.26,3.06s-17.91,7.3-21.09,19.54-2,18,14.16,19.76,50.7,22.28,51.85,67.93c.31,12.18-41.07,56.46-66,64-86,26-74.25,121.27-66.5,120.5,10-1,186,0,186,0s-9.42-114.31-10-147.83-8.09-37.56-13.29-58.37S288.05,40.05,269,20.4,230.26,3.06,230.26,3.06Z"/><path d="M156.16,36.69a115.45,115.45,0,0,0-42.72,31.37,109.83,109.83,0,0,0-15.1,22.71A59.92,59.92,0,0,0,93.24,105a50.72,50.72,0,0,0-.65,15.06c1.07,11.32,4.69,22.84,2.2,34.21-.41,1.88,2.48,2.69,2.89.8,2.16-9.87,0-19.79-1.42-29.6a66.14,66.14,0,0,1-.82-15A47.68,47.68,0,0,1,99.22,96,99.35,99.35,0,0,1,113.55,72.6a114.71,114.71,0,0,1,18.59-18.33,112.27,112.27,0,0,1,25.53-15,1.5,1.5,0,1,0-1.51-2.59Z" style="fill:#333"/><path d="M166.31,18.3c3.28-2.12,7.48.71,8.23,4.16,1.07,4.88-2.54,9.37-6.22,12.07-4,2.92-8.46,5.14-12.64,7.75s-8.19,5.34-12.09,8.29c-15.81,12-29,27.45-34,47a74.81,74.81,0,0,0-.64,34.7c.41,1.88,3.31,1.09,2.89-.8a72,72,0,0,1,14.21-60,110.25,110.25,0,0,1,22-20.42c4.14-3,8.42-5.73,12.79-8.35s9.22-4.94,12.72-8.77,5.74-10,2.85-14.81c-2.29-3.82-7.67-5.91-11.62-3.35-1.61,1.05-.11,3.65,1.52,2.59Z" style="fill:#333"/><path d="M188.45,11a81.8,81.8,0,0,0-65.19,9.59C104.09,32.76,91.46,52.87,84.4,74.08a181.21,181.21,0,0,0-7.75,38.17c-.71,6.73-1.17,13.49-1.49,20.25-.16,3.38-.28,6.77-.39,10.15a58.82,58.82,0,0,1-.89,10c-1.35,6.51-4.57,12.6-7,18.75q-3.75,9.54-6.93,19.28C55.93,203,52.31,216,54.32,229c1.48,9.69,4.72,19.08,7.36,28.5,2.7,9.61,5.51,19.67,5.26,29.75a32,32,0,0,1-.7,6.1c-.42,1.88,2.47,2.68,2.89.8,2-9.07.14-18.7-2-27.58-2.37-10-5.64-19.71-8.13-29.66a66,66,0,0,1-2.32-14.56,71.81,71.81,0,0,1,2.81-19.86A291.09,291.09,0,0,1,72.73,165a82.11,82.11,0,0,0,3.47-9.19,43.6,43.6,0,0,0,1.43-9.64c.35-6.58.46-13.18.86-19.77a229.86,229.86,0,0,1,5.33-39.19c5.25-22,15.61-43.63,33.27-58.38a78.46,78.46,0,0,1,62.66-16.68,76.44,76.44,0,0,1,7.9,1.79,1.5,1.5,0,0,0,.8-2.89Z" style="fill:#333"/><path d="M89.18,294.79c.39-9.6.94-19.2.82-28.81s-.52-20-3.79-29.19c-1.88-5.29-5.28-9.82-7.68-14.86a38.86,38.86,0,0,1-3.27-19,103.09,103.09,0,0,1,3.34-19.23c1.66-6.69,3.43-13.35,4.84-20.11a281.77,281.77,0,0,0,5.68-46.94c.07-1.93-2.93-1.93-3,0a277,277,0,0,1-4.77,42.11c-1.3,6.78-2.92,13.48-4.64,20.17a155.23,155.23,0,0,0-4.06,19.55,48.87,48.87,0,0,0,1,18.74c1.74,6.36,5.63,11.57,8.49,17.42a43.7,43.7,0,0,1,3.48,12.13,117.31,117.31,0,0,1,1.33,15.32c.34,10.89-.3,21.77-.74,32.65-.07,1.93,2.93,1.93,3,0Z" style="fill:#333"/><path d="M98,177.63c-.75,10-1.5,20.16-.31,30.18A70.76,70.76,0,0,0,101,222.34c1.49,4.43,3.3,8.78,4.52,13.3,1.54,5.73,1.9,11.81,2.14,17.71.31,7.27.21,14.55-.17,21.82a134.49,134.49,0,0,1-2.22,20.22c-.4,1.88,2.5,2.69,2.89.8a128.22,128.22,0,0,0,2.13-17.7c.49-7.36.67-14.75.48-22.13A111.15,111.15,0,0,0,109,237.27a79.33,79.33,0,0,0-3.46-11.11,89.53,89.53,0,0,1-4.19-14.34c-2-11.27-1.14-22.85-.29-34.19.15-1.93-2.85-1.92-3,0Z" style="fill:#333"/><path d="M66.13,152.58c-1.66-8.3.11-16.72,1.57-24.92a106.26,106.26,0,0,0,1.67-12.57c.24-4.39,0-8.78-.19-13.17a84.57,84.57,0,0,1,2-22.82,82.21,82.21,0,0,1,7.86-20.42,80.61,80.61,0,0,1,15-19.57c1.4-1.33-.72-3.45-2.12-2.12A84.46,84.46,0,0,0,69.09,75.38a82.66,82.66,0,0,0-3,22.39c0,4.56.39,9.11.39,13.67a79.22,79.22,0,0,1-1.26,13.13c-1.62,9.53-3.9,19.15-2,28.81.38,1.89,3.27,1.09,2.89-.8Z" style="fill:#333"/><path d="M95.93,87.93c.61-6.54,3.45-12.57,6.62-18.22,2.93-5.24,6-10.41,9.31-15.44,6.26-9.6,13.86-18.79,24.5-23.67,6.85-3.14,14.45-4.31,21.89-5,1.9-.18,1.92-3.18,0-3-7,.68-14,1.72-20.57,4.26a47.67,47.67,0,0,0-15.41,9.81c-9,8.42-15.34,19.43-21.43,30C97,73.26,93.65,80.22,92.93,87.93c-.18,1.92,2.82,1.9,3,0Z" style="fill:#333"/><path d="M190.54,24.21c1.76,7.24-4.81,13.54-9.4,18.18A57.09,57.09,0,0,1,172.35,50a52.08,52.08,0,0,1-11.11,5.13l-13.85,5.09c-1.8.66-1,3.56.79,2.9l13.4-4.92c4.09-1.51,8.24-3,11.92-5.37a58.27,58.27,0,0,0,9.6-8.21,55.21,55.21,0,0,0,7.71-9c2.35-3.67,3.68-7.91,2.62-12.24-.45-1.88-3.35-1.08-2.89.8Z" style="fill:#333"/><path d="M231.22,10.33a17.33,17.33,0,0,0-10.11,6.15c-2.48,3.08-4.71,7.87-3.52,11.9s5.53,5.31,9.16,6.2a83.3,83.3,0,0,1,14.42,4.89,85.12,85.12,0,0,1,14.68,8.43c1.57,1.13,3.07-1.47,1.51-2.59a86.66,86.66,0,0,0-23.87-12c-2.12-.67-4.27-1.24-6.43-1.77a15.44,15.44,0,0,1-4.89-1.82c-3.28-2.21-1.58-7,.09-9.72A14.71,14.71,0,0,1,232,13.22c1.89-.37,1.09-3.26-.8-2.89Z" style="fill:#333"/><path d="M250.57,25.28c6.09,2.86,12.28,5.94,17.46,10.31a29.39,29.39,0,0,1,6.36,7.21,23.62,23.62,0,0,1,3.08,10c.43,4.09,1,7.91,3,11.56,1.85,3.32,4.35,6.22,6.16,9.56,3.57,6.58,4.2,14.24,4.77,21.56.64,8.33,1.22,16.85,5.06,24.44.88,1.72,3.46.2,2.59-1.52-6.93-13.69-2.58-30.11-8.86-44.05-1.6-3.53-4-6.52-6.09-9.77a21.68,21.68,0,0,1-2.5-5.06,30.9,30.9,0,0,1-1.06-6.27,29.14,29.14,0,0,0-2.8-10.6,29.08,29.08,0,0,0-6-7.74C266.09,29.55,259,26,252.08,22.69c-1.74-.82-3.26,1.77-1.51,2.59Z" style="fill:#333"/><path d="M247.91,11c-3.36,1.22-6.72,2.41-10.07,3.66-2.41.89-5,2-6.27,4.36-2.86,5.13,1.7,10.55,6.25,12.51,2.67,1.16,5.52,1.72,8.26,2.68a33,33,0,0,1,7.74,4A47.57,47.57,0,0,1,265.87,50.9c4.18,6.22,7.31,13.05,10.41,19.84.81,1.75,3.39.23,2.6-1.52C274,58.51,268.83,47.45,260,39.35A38.23,38.23,0,0,0,246.1,31c-4.45-1.45-11.27-2.34-12.3-8-.55-3,2.09-4.51,4.5-5.42,3.45-1.31,6.94-2.53,10.4-3.79,1.8-.66,1-3.56-.79-2.89Z" style="fill:#333"/><path d="M302.22,101.55c.26,29,.44,58.09.79,87.13.17,14,.6,28,2.51,41.83.77,5.59,2.1,11.09,2.78,16.68.59,4.92.88,9.87,1.09,14.81.47,10.93.37,21.86.79,32.79.08,1.92,3.08,1.93,3,0-.37-9.71-.32-19.42-.65-29.13-.17-5-.41-10.05-.87-15.06s-1.45-9.78-2.29-14.69c-2.39-13.83-3-27.9-3.28-41.91-.26-14.5-.3-29-.43-43.51l-.44-48.94a1.5,1.5,0,0,0-3,0Z" style="fill:#333"/><path d="M293.8,137a118.79,118.79,0,0,0,4.48,47.52c.56,1.84,3.46,1.06,2.89-.79A116.67,116.67,0,0,1,296.8,137c.21-1.91-2.79-1.9-3,0Z" style="fill:#333"/><path d="M313,139.1c-3.82,24.76,1.37,49.49,2.82,74.2a165.81,165.81,0,0,1,0,21c-.13,1.93,2.87,1.92,3,0,1.73-24.69-3.9-49.08-4.23-73.72a124.8,124.8,0,0,1,1.31-20.71c.29-1.89-2.6-2.7-2.9-.8Z" style="fill:#333"/><path d="M200.68,249.79s-53.5,5.5-63.5,49.5,149,6,149,6-1-47.2-49-52.6h0l-36.5-2.9" style="stroke:#fff;stroke-miterlimit:10;stroke-width:0.577889680862427px"/><path d="M279.78,280.72c-14,10.46-31.27,15.65-48.63,16.57-18.64,1-37.13-3-54.58-9.32a267.78,267.78,0,0,1-29.92-13.25c-1.72-.87-3.24,1.72-1.52,2.59,17.56,8.94,36,16.71,55.34,20.57,17.89,3.57,36.6,3.64,54.19-1.5a83.58,83.58,0,0,0,26.63-13.07c1.53-1.15,0-3.75-1.51-2.59Z" style="fill:#fff"/><path d="M186.35,255.38c2.23,3.82,6.1,6,10.05,7.75A112.4,112.4,0,0,0,211,268.47c9.07,2.52,18.93,3.24,27.85-.28a27.91,27.91,0,0,0,11.8-8.46c1.19-1.5-.92-3.63-2.12-2.12-5,6.33-12.93,9.49-20.86,9.95-9.58.56-18.92-2.56-27.66-6.13-4.12-1.68-8.76-3.53-11.11-7.56a1.5,1.5,0,0,0-2.59,1.51Z" style="fill:#fff"/><path d="M164.77,264.56a113.71,113.71,0,0,0,40.44,18.22c13.93,3.17,29.11,3.65,42.61-1.61a49.64,49.64,0,0,0,19.48-13.58c1.27-1.44-.84-3.57-2.12-2.12C256,275.92,243,281.23,229.3,282c-14.39.83-29-2.62-42.11-8.3A113.33,113.33,0,0,1,166.28,262c-1.57-1.12-3.07,1.48-1.51,2.59Z" style="fill:#fff"/></g><g id="a2bbfef7-8525-4364-a264-348e56b801ff" data-name="neck"><path d="M206.21,222.28s5.47,25.51-5.53,27.51,26,25.8,36.5,2.9c0,0-18.5.1-11.5-34.9Z" style="fill:#f4eee8"/></g><g id="e2aa89ff-7e1c-42b5-b82c-5f513b596b37" data-name="face-bg"><path d="M207.45,33.66s1.53,6.41-23.37,18-55.9,22.61-59.9,32.61-6.28,19.79-5.14,29.89,2.18,29.48,3.66,38.3,7.56,27.08,18,37.44,30.69,30.65,51.46,33.37,52,0,62-13,26-29.34,29-43.17S290.83,131,286,102.64s-30-45.5-34.92-48.43-27.91-12.92-33.91-15.92S207.45,33.66,207.45,33.66Z" style="fill:#f4eee8;stroke:#000;stroke-miterlimit:10;stroke-width:0.577889680862427px"/></g><g id="e741ccec-56c1-4d62-8af8-b2c7a85ac418" data-name="nose"><path d="M151.6,79.34s30.05-18.49,48-6.35c0,0,6.93,6.35,6.93,34.67,0,16.76-2.31,19.65-2.89,29.47-.59,10.08,17.92,9.25,14.45,1.74,0,0,1.73,5.2,4.62,4.62s3.47-3.47,1.74-6.93" style="fill:none;stroke:#000;stroke-miterlimit:10;stroke-width:0.577889680862427px"/></g><g id="f6206825-3ba5-401e-89c9-18e534b9c207" data-name="eye-right"><path d="M218.64,84.55s16.18-4.63,29.47,3.46c0,0,1.16,1.74-1.16,2.89s-4.62,4.63-14.44,2.89S222.1,90.9,218.64,84.55Z" style="fill:none;stroke:#000;stroke-miterlimit:10;stroke-width:0.577889680862427px"/><path d="M232.11,83.13s-1.91,6-1.91,7.77.57,2.89,2.31,2.89A4.94,4.94,0,0,0,237.13,88C236.55,84,235.17,82.87,232.11,83.13Z"/></g><g id="b24f0c0d-aa02-4f07-b1ab-9de4b743a314" data-name="eye-left"><path d="M190.9,88.59s-4.05-3.47-12.14-3.47S162.58,85.7,158,88c0,0,3.47,9.25,16.18,8.67S190.9,88.59,190.9,88.59Z" style="fill:none;stroke:#000;stroke-miterlimit:10;stroke-width:0.577889680862427px"/><path d="M169,85.73s-2.93,6.33,0,8.06,5.78,4,6.93,0,.52-7.88-2.34-8.27A10.32,10.32,0,0,0,169,85.73Z"/></g><g id="a579f9a8-0b61-4cf7-b77a-166eec7c419f" data-name="lashes-right"><path d="M240.13,84.87a14.37,14.37,0,0,0,2.78-6.1c.58-3.47-1.16-5.2,1.73-8.67" style="fill:none;stroke:#000;stroke-miterlimit:10;stroke-width:0.577889680862427px"/><path d="M244.26,85.73s2.12-1.76,2.12-6.39a15.71,15.71,0,0,1,1.73-7.51" style="fill:none;stroke:#000;stroke-miterlimit:10;stroke-width:0.577889680862427px"/><path d="M248.69,79.34A27.88,27.88,0,0,0,253.31,73" style="fill:none;stroke:#000;stroke-miterlimit:10;stroke-width:0.577889680862427px"/></g><g id="ef47ea47-071f-4d39-b2dd-4798d252e92e" data-name="lashes-left"><path d="M162.68,86.17s-2.41-13.76.48-18.38" style="fill:none;stroke:#000;stroke-miterlimit:10;stroke-width:0.577889680862427px"/><path d="M158,68.36s-1.16,1.16-1.16,4,1.74,5.2,1.74,8.09a18.61,18.61,0,0,0,1.54,6.32" style="fill:none;stroke:#000;stroke-miterlimit:10;stroke-width:0.577889680862427px"/><path d="M153.34,73a95.92,95.92,0,0,1,2.89,9.24A37.3,37.3,0,0,0,158,88" style="fill:none;stroke:#000;stroke-miterlimit:10;stroke-width:0.577889680862427px"/></g><g id="ac9ceb97-0a2e-44ca-80b3-f359008569de" data-name="eyebrows"><path d="M219.79,71.25s13.29-4,23.12,1.74" style="fill:none;stroke:#000;stroke-miterlimit:10;stroke-width:0.577889680862427px"/><path d="M190.24,69.25s-8.8-1.43-21.7,2.6" style="fill:none;stroke:#000;stroke-miterlimit:10;stroke-width:0.577889680862427px"/></g><g id="b9cf2a5b-0b8d-4081-9bea-4160cc6099bb" data-name="glasses"><path d="M172.41,111.71c-4.4.13-20.81-15.61-19.65-23.12s14.45-12.13,28.89-12.13,17.92,11,17.92,11S203,95,196.1,103C196.1,103,190.9,111.13,172.41,111.71Z" style="fill:none;stroke:#f99608;stroke-miterlimit:10;stroke-width:0.577889680862427px"/><path d="M212.86,84s6.36-8.67,21.38-7.51S255,88,255,93.79s.58,16.76-21.38,18.49S214,91.48,212.86,84Z" style="fill:none;stroke:#f99608;stroke-miterlimit:10;stroke-width:0.577889680862427px"/><path d="M198.05,84s8.45-8.7,14.81,0" style="fill:none;stroke:#f99608;stroke-miterlimit:10;stroke-width:0.577889680862427px"/><path d="M255.7,90.85a75.25,75.25,0,0,1,22.66-7.21c1.1-.17.63-1.84-.46-1.67a76.88,76.88,0,0,0-23.08,7.38c-1,.5-.12,2,.88,1.5Z" style="fill:#f99608"/><path d="M152.14,88.65q-12.44-3.77-24.54-8.56c-1-.41-1.49,1.27-.46,1.67q12.09,4.8,24.54,8.56a.87.87,0,0,0,.46-1.67Z" style="fill:#f99608"/></g><g id="a55353e9-9657-4d5a-8482-5a612a464ecb" data-name="Layer 18"><g style="opacity:0.33"><path d="M213.76,204.85c0-.36-.07.15,0,0s.05-.2.09-.29c-.13.32.05,0,.08-.08-.06.11-.12.12,0,0s.33-.27.07-.1l.21-.13c.31-.2-.26.08.09,0s-.14,0,0,0,.36,0,0,0l.3.08c.17,0-.24-.16,0,0,0,0,.3.22.15.09s.12.14.12.14-.06-.09,0,0,.09.22,0,0a2.37,2.37,0,0,1,.09.36,1.48,1.48,0,0,0,1.64,1.08,1.52,1.52,0,0,0,1.3-1.48c0-.08.09-.56,0-.16,0-.13,0-.27.07-.4a2.88,2.88,0,0,1,.09-.4l.06-.22s.11-.36.05-.14.07-.16.11-.22.08-.12.11-.18c-.11.23-.13.14,0,.06s.13-.15.14-.15-.33.19-.06.05a.61.61,0,0,0,.14-.07l-.11,0,.1,0s-.34,0,0,0c.12,0,.2.07,0,0l.19.05c.19,0-.16-.12,0,0s.27.17.12.06,0,0,.05.05l.19.2c-.15-.18,0,0,0,.09s.15.3.09.15,0,.08,0,.09a4,4,0,0,1,.14.57c0,.05,0,.28,0,0,0,.07,0,.14,0,.22s0,.42,0,.62,0,.35,0,.53a1.23,1.23,0,0,0,0,.19c0,.23,0-.23,0,0s-.17.67-.27,1,.11-.2,0,0l-.09.17c-.08.15-.17.29-.26.43.16-.24-.06.05-.14.13l-.18.17c-.15.14.26-.15-.08,0l-.23.13s-.22.11-.07,0-.1,0-.14.05l-.26.07-.47.1c.06,0,.28,0,0,0l-.35,0c-.35,0-.71,0-1.06,0l-.49,0-.28,0c-.07,0-.36-.07-.1,0l-.27-.07s.18.11.19.12c-.18-.13-.08-.06,0,0a2.09,2.09,0,0,1-.17-.28s-.12-.29-.06-.13-.07-.23-.07-.22a3.73,3.73,0,0,1-.12-.56c0,.26,0,0,0,0s0-.24,0-.36a2.81,2.81,0,0,0,0-.29c0-.23-.07.31,0-.1a5.73,5.73,0,0,1,.14-.56c0-.09.06-.18.1-.27-.1.24.07-.11.09-.16l-2.36.31,2.11,2.37c.81.9,1.68,1.74,3,1.49a3,3,0,0,0,2.17-2.09,3.94,3.94,0,0,0,.16-1.6c0-.25,0-.5,0-.74s0-.22,0-.33,0-.47,0-.25a1.53,1.53,0,0,0-1-1.84,1.51,1.51,0,0,0-1.84,1,10.09,10.09,0,0,0,0,2.69c0-.14,0-.16,0-.06a.84.84,0,0,1,0,.17c-.05.16-.05.16,0,0a2,2,0,0,1-.12.21c.11-.14.12-.15,0,0l.13-.09c-.14.09-.12.09.07,0-.16,0-.14,0,.08,0a.51.51,0,0,1,.3.06c.11.1.13.12.05.05l-.32-.33-.8-.9-1.7-1.92a1.51,1.51,0,0,0-2.36.3,6.08,6.08,0,0,0-.75,3.39,4.88,4.88,0,0,0,1.3,3.18c.93.87,2.3.87,3.5.89a7.35,7.35,0,0,0,3.27-.6c2-.93,2.87-3.16,3-5.26a6.61,6.61,0,0,0-.66-3.34,3.81,3.81,0,0,0-3-2,3.26,3.26,0,0,0-3,1.69,7.47,7.47,0,0,0-.84,3.1l3-.39a3.68,3.68,0,0,0-3.79-2.93,3.8,3.8,0,0,0-3.44,3.66,1.5,1.5,0,0,0,1.5,1.5,1.53,1.53,0,0,0,1.5-1.5Z" style="fill:#c30"/></g><path d="M201.68,202.79s14,9,26-2" style="fill:none;stroke:#c30;stroke-miterlimit:10"/></g></g><g id="ad822e60-effa-47e2-ac2e-893be9332474" data-name="arm"><path d="M109.68,236.79s-2.24-9.28,3.38-13.64,9.62-8.3,9.62-16.36c0-5-3-1-6,5s-1-4-1-10-1-11-8-17-13.15,13.8-12.07,20.9,9.07,23.1,7.07,31.1S109.68,236.79,109.68,236.79Z" style="fill:#f4eee8;stroke:#000;stroke-miterlimit:10;stroke-width:0.577889680862427px"/><path d="M113.68,232.79s8.18,118.87-14.61,122.58c-16.78,2.73-15.7-15.92-15.7-15.92C78,286.92,98.92,238.56,99.94,228.88,99.94,228.88,104.17,233.56,113.68,232.79Z" style="stroke:#fff;stroke-miterlimit:10;stroke-width:0.577889680862427px"/><path d="M85.6,287.67a37.43,37.43,0,0,0,27.77,1.91c1.83-.6,1-3.49-.8-2.89a34.31,34.31,0,0,1-25.45-1.61c-1.73-.84-3.26,1.75-1.52,2.59Z" style="fill:#fff"/><path d="M90.93,265.07a25.07,25.07,0,0,0,22.32,0c1.73-.86.21-3.45-1.52-2.59a21.87,21.87,0,0,1-19.28,0c-1.73-.85-3.25,1.73-1.52,2.59Z" style="fill:#fff"/><path d="M96,246.63a29.74,29.74,0,0,0,16.44,2.26,1.51,1.51,0,0,0,1.05-1.84,1.54,1.54,0,0,0-1.85-1.05,26,26,0,0,1-14.12-2,1.56,1.56,0,0,0-2.06.54,1.52,1.52,0,0,0,.54,2Z" style="fill:#fff"/></g></g></svg>