<svg id="edf76678-2a70-41ba-9055-a6eb9fecc327" data-name="mise" xmlns="http://www.w3.org/2000/svg" viewBox="0 0 388 296.98"><g id="b2d62b21-dbb7-4cbe-9cfc-3f700fb111d7" data-name="head"><g id="ab3e499a-8deb-46c6-8932-a20307f84316" data-name="head_bg"><path d="M193,41.5s56-12,80,24,27,106,28,128-62,59-94,57-83-10-98-64S100,55.5,193,41.5Z" style="fill:#f4eee8"/></g><g id="ef7dcc4b-7b31-45c3-a614-e5619fc296e0" data-name="hair"><path d="M206.31,45.45s8.09-12.14-.58-20.23-15.6-22-41.61-15.6S83.79,25.8,66.46,74.34s-10.4,146.21-10.4,158.34,1.15,122.77-3.47,123.93S329,357.5,329,357.5,213,255.07,151.5,207c-30.53-23.85-29.57-60.26-30.14-65.62-1.74-16.18-4-46.23,9.82-55.48S206.88,52.38,206.31,45.45Z"/><path d="M230.58,10.77s-17.92,7.3-21.09,19.54-2,18,14.15,19.76,62.42,27.16,63.57,72.82c.31,12.18,2.2,49.49-13.71,70.11C229.78,249.67,135.25,358.28,143,357.5c10-1,186,0,186,0s-9.43-169.31-10-202.83-8.1-37.56-13.3-58.37-17.33-48.54-36.4-68.19S230.58,10.77,230.58,10.77Z"/><path d="M156.48,44.4a115.45,115.45,0,0,0-42.72,31.37,109.83,109.83,0,0,0-15.1,22.71,60.39,60.39,0,0,0-5.11,14.22,50.39,50.39,0,0,0-.64,15.06C94,139.08,97.6,150.6,95.11,162c-.41,1.89,2.48,2.69,2.89.8,2.16-9.87,0-19.79-1.43-29.6a66.68,66.68,0,0,1-.81-15,47.68,47.68,0,0,1,3.78-14.45,99.35,99.35,0,0,1,14.33-23.41A114.58,114.58,0,0,1,132.45,62,112.22,112.22,0,0,1,158,47a1.51,1.51,0,0,0,.54-2.05,1.54,1.54,0,0,0-2.05-.54Z" style="fill:#333"/><path d="M166.62,26c3.28-2.13,7.49.7,8.24,4.15,1.07,4.88-2.55,9.37-6.22,12.07-4,2.92-8.47,5.14-12.64,7.75s-8.19,5.34-12.09,8.29c-15.81,12-29,27.45-34,47a74.68,74.68,0,0,0-.64,34.7c.41,1.88,3.3,1.09,2.89-.8a72,72,0,0,1,14.21-60,110,110,0,0,1,22-20.42c4.14-3,8.42-5.73,12.78-8.35s9.23-4.94,12.73-8.77,5.74-10,2.85-14.81c-2.3-3.82-7.67-5.91-11.62-3.34-1.61,1-.11,3.64,1.51,2.59Z" style="fill:#333"/><path d="M188.76,18.72a81.77,81.77,0,0,0-65.18,9.59c-19.17,12.16-31.8,32.27-38.86,53.48A180.58,180.58,0,0,0,77,120c-.72,6.73-1.17,13.49-1.49,20.25-.16,3.38-.28,6.77-.4,10.15a58.82,58.82,0,0,1-.89,10c-1.35,6.51-4.56,12.6-7,18.75q-3.75,9.54-6.93,19.29c-4,12.35-7.66,25.26-5.65,38.35,1.49,9.69,4.72,19.08,7.36,28.5,2.7,9.61,5.52,19.68,5.27,29.75a31.26,31.26,0,0,1-.71,6.1c-.41,1.88,2.48,2.69,2.9.8,2-9.07.14-18.7-2-27.58-2.38-10-5.65-19.71-8.13-29.66A66,66,0,0,1,57,230.1a71.31,71.31,0,0,1,2.81-19.85,290.7,290.7,0,0,1,13.21-37.58,82.05,82.05,0,0,0,3.46-9.19A44.21,44.21,0,0,0,78,153.85c.35-6.59.46-13.19.86-19.78a229.86,229.86,0,0,1,5.33-39.19c5.24-22,15.61-43.63,33.26-58.37a78.45,78.45,0,0,1,62.67-16.69,79.77,79.77,0,0,1,7.9,1.79,1.5,1.5,0,0,0,.79-2.89Z" style="fill:#333"/><path d="M89.5,302.5c.38-9.6.93-19.2.82-28.81s-.52-20-3.79-29.19c-1.89-5.29-5.28-9.82-7.68-14.86a38.86,38.86,0,0,1-3.27-18.95,102.85,102.85,0,0,1,3.34-19.22c1.66-6.7,3.43-13.36,4.84-20.12a281.77,281.77,0,0,0,5.68-46.94c.07-1.93-2.93-1.93-3,0a277,277,0,0,1-4.77,42.11C80.37,173.3,78.75,180,77,186.69A153.48,153.48,0,0,0,73,206.24a49.06,49.06,0,0,0,1,18.74c1.74,6.37,5.63,11.58,8.5,17.42a43.68,43.68,0,0,1,3.47,12.13,115.61,115.61,0,0,1,1.34,15.32c.34,10.9-.3,21.77-.74,32.65-.08,1.93,2.92,1.93,3,0Z" style="fill:#333"/><path d="M98.33,185.34c-.75,10-1.5,20.16-.32,30.18a71.44,71.44,0,0,0,3.28,14.53c1.49,4.44,3.3,8.78,4.52,13.3,1.54,5.73,1.9,11.81,2.14,17.71.3,7.27.21,14.55-.17,21.82a134.51,134.51,0,0,1-2.23,20.22c-.39,1.89,2.5,2.69,2.9.8a129.77,129.77,0,0,0,2.13-17.7c.49-7.36.66-14.75.47-22.12A110,110,0,0,0,109.27,245a81.77,81.77,0,0,0-3.46-11.12,89.53,89.53,0,0,1-4.19-14.34c-2.05-11.27-1.14-22.85-.29-34.19.14-1.92-2.86-1.92-3,0Z" style="fill:#333"/><path d="M66.45,160.29c-1.66-8.3.1-16.72,1.56-24.92a104.24,104.24,0,0,0,1.68-12.57c.24-4.39,0-8.78-.2-13.17a84.61,84.61,0,0,1,2.06-22.82,82.21,82.21,0,0,1,7.86-20.42,80.3,80.3,0,0,1,15-19.57c1.4-1.33-.72-3.45-2.12-2.12A84.37,84.37,0,0,0,69.41,83.09a82.27,82.27,0,0,0-3,22.39c0,4.56.39,9.11.38,13.67a78.16,78.16,0,0,1-1.26,13.13c-1.62,9.53-3.89,19.15-2,28.81.38,1.89,3.27,1.09,2.89-.8Z" style="fill:#333"/><path d="M96.24,95.64c.62-6.54,3.45-12.56,6.62-18.22,2.94-5.23,6-10.41,9.32-15.44,6.26-9.6,13.86-18.79,24.5-23.67,6.84-3.13,14.45-4.31,21.88-5,1.91-.18,1.93-3.18,0-3-7,.69-14,1.72-20.57,4.26a47.9,47.9,0,0,0-15.4,9.81c-9,8.42-15.34,19.43-21.43,30C97.35,81,94,87.93,93.24,95.64c-.18,1.92,2.82,1.91,3,0Z" style="fill:#333"/><path d="M190.86,31.92c1.76,7.24-4.81,13.54-9.41,18.18a57,57,0,0,1-8.78,7.65,52.08,52.08,0,0,1-11.11,5.13L147.7,68c-1.79.66-1,3.56.8,2.9L161.9,66a59.6,59.6,0,0,0,11.91-5.37,57.86,57.86,0,0,0,9.61-8.21,55.71,55.71,0,0,0,7.71-9c2.35-3.67,3.68-7.91,2.62-12.24-.45-1.88-3.35-1.08-2.89.8Z" style="fill:#333"/><path d="M231.54,18a17.3,17.3,0,0,0-10.11,6.15c-2.48,3.09-4.71,7.87-3.53,11.9s5.54,5.31,9.17,6.2a83.3,83.3,0,0,1,14.42,4.89,85.87,85.87,0,0,1,14.68,8.43c1.57,1.13,3.07-1.47,1.51-2.59a86.8,86.8,0,0,0-23.87-12c-2.12-.67-4.27-1.24-6.43-1.77a15.11,15.11,0,0,1-4.89-1.82c-3.28-2.21-1.58-7,.08-9.72a14.73,14.73,0,0,1,9.76-6.81c1.9-.37,1.1-3.26-.79-2.89Z" style="fill:#333"/><path d="M250.88,33c6.1,2.86,12.29,5.94,17.47,10.31a29.32,29.32,0,0,1,6.35,7.21,23.68,23.68,0,0,1,3.09,10c.43,4.09,1,7.91,3,11.56,1.85,3.32,4.35,6.22,6.16,9.56,3.56,6.58,4.2,14.24,4.77,21.56.64,8.33,1.22,16.85,5.06,24.44.87,1.72,3.46.2,2.59-1.52-6.94-13.69-2.58-30.11-8.87-44-1.59-3.53-4-6.52-6.08-9.77a21.84,21.84,0,0,1-2.51-5.05,31.1,31.1,0,0,1-1.05-6.28A29,29,0,0,0,278,50.34a29.33,29.33,0,0,0-6-7.75c-5.65-5.33-12.69-8.92-19.65-12.19-1.74-.82-3.26,1.77-1.52,2.59Z" style="fill:#333"/><path d="M248.22,18.67c-3.35,1.22-6.72,2.41-10.06,3.66-2.41.89-5,2-6.28,4.36-2.85,5.13,1.7,10.55,6.26,12.52,2.67,1.15,5.52,1.71,8.25,2.67a32.6,32.6,0,0,1,7.74,4,47.61,47.61,0,0,1,12.06,12.69c4.18,6.22,7.3,13,10.41,19.84.8,1.75,3.39.23,2.59-1.51-4.9-10.72-10-21.78-18.88-29.88a38.23,38.23,0,0,0-13.89-8.33c-4.45-1.44-11.27-2.34-12.3-8-.55-3,2.08-4.51,4.49-5.42,3.45-1.31,6.94-2.53,10.41-3.79,1.8-.66,1-3.56-.8-2.89Z" style="fill:#333"/><path d="M302.54,109.26c.26,29.05.43,58.09.79,87.13.17,14,.6,28,2.5,41.83.77,5.59,2.11,11.09,2.79,16.69.59,4.91.88,9.86,1.09,14.8.47,10.93.37,21.87.79,32.79.07,1.92,3.07,1.93,3,0-.38-9.7-.32-19.42-.65-29.13-.17-5-.41-10.05-.87-15.06s-1.45-9.78-2.3-14.69c-2.38-13.83-3-27.9-3.27-41.91-.26-14.5-.3-29-.43-43.51l-.44-48.94a1.5,1.5,0,0,0-3,0Z" style="fill:#333"/><path d="M294.12,144.73a118.59,118.59,0,0,0,4.48,47.52c.56,1.84,3.46,1.06,2.89-.79a116.67,116.67,0,0,1-4.37-46.73c.21-1.91-2.8-1.9-3,0Z" style="fill:#333"/><path d="M313.35,146.82c-3.82,24.75,1.37,49.48,2.81,74.19a164,164,0,0,1,0,21c-.13,1.93,2.87,1.92,3,0,1.73-24.69-3.9-49.08-4.23-73.72a125.88,125.88,0,0,1,1.3-20.71c.29-1.89-2.6-2.7-2.89-.79Z" style="fill:#333"/></g><g id="be1e4637-93f0-4792-a9bd-1f3852dfbbf4" data-name="nose"><path d="M151.92,87.06s30.05-18.5,48-6.36c0,0,6.94,6.35,6.94,34.67,0,16.76-2.31,19.65-2.89,29.47-.59,10.08,17.91,9.25,14.45,1.74,0,0,1.73,5.2,4.62,4.62s3.47-3.47,1.73-6.93" style="fill:none;stroke:#000;stroke-miterlimit:10;stroke-width:0.577889680862427px"/></g><g id="b6b8475e-f9a9-4b2e-aa97-b2bf9554bbfe" data-name="eye-right"><path d="M219,92.26s16.19-4.63,29.48,3.46c0,0,1.15,1.74-1.16,2.89s-4.62,4.63-14.45,2.89S222.42,98.61,219,92.26Z" style="fill:none;stroke:#000;stroke-miterlimit:10;stroke-width:0.577889680862427px"/><path d="M232.42,90.84s-1.91,6-1.91,7.77.58,2.89,2.31,2.89a4.94,4.94,0,0,0,4.63-5.78C236.87,91.68,235.49,90.58,232.42,90.84Z"/></g><g id="b0005804-1c9b-448b-bf3f-a483703a4e0f" data-name="eye-left"><path d="M191.22,96.3s-4.05-3.47-12.14-3.47-16.18.58-20.8,2.89c0,0,3.46,9.25,16.18,8.67S191.22,96.3,191.22,96.3Z" style="fill:none;stroke:#000;stroke-miterlimit:10;stroke-width:0.577889680862427px"/><path d="M169.29,93.45s-2.92,6.32,0,8,5.78,4,6.93,0,.52-7.88-2.34-8.27A10.28,10.28,0,0,0,169.29,93.45Z"/></g><g id="b74b54aa-1c7e-4354-bfc0-ce328f4e6c4f" data-name="lashes-right"><path d="M240.45,92.58a14.29,14.29,0,0,0,2.78-6.1c.57-3.47-1.16-5.2,1.73-8.67" style="fill:none;stroke:#000;stroke-miterlimit:10;stroke-width:0.577889680862427px"/><path d="M244.57,93.45s2.12-1.77,2.12-6.39a15.66,15.66,0,0,1,1.74-7.52" style="fill:none;stroke:#000;stroke-miterlimit:10;stroke-width:0.577889680862427px"/><path d="M249,87.06a28.41,28.41,0,0,0,4.62-6.36" style="fill:none;stroke:#000;stroke-miterlimit:10;stroke-width:0.577889680862427px"/></g><g id="a6fc4d89-0714-4a1c-9e12-3a5792c40fad" data-name="lashes-left"><path d="M163,93.88s-2.41-13.76.48-18.38" style="fill:none;stroke:#000;stroke-miterlimit:10;stroke-width:0.577889680862427px"/><path d="M158.28,76.08s-1.16,1.15-1.16,4,1.73,5.2,1.73,8.09a18.52,18.52,0,0,0,1.55,6.32" style="fill:none;stroke:#000;stroke-miterlimit:10;stroke-width:0.577889680862427px"/><path d="M153.65,80.7A96.4,96.4,0,0,1,156.54,90a38.09,38.09,0,0,0,1.74,5.77" style="fill:none;stroke:#000;stroke-miterlimit:10;stroke-width:0.577889680862427px"/></g><g id="af4cf4ff-71fc-4bb1-8a83-34be8d156506" data-name="glasses"><path d="M172.72,119.42c-4.4.14-20.8-15.61-19.64-23.12S167.52,84.17,182,84.17s17.91,11,17.91,11,3.47,7.51-3.46,15.6C196.42,110.75,191.22,118.84,172.72,119.42Z" style="fill:none;stroke:#f99608;stroke-miterlimit:10;stroke-width:0.577889680862427px"/><path d="M213.18,91.68s6.35-8.67,21.38-7.51,20.8,11.55,20.8,17.33.58,16.76-21.38,18.5S214.33,99.19,213.18,91.68Z" style="fill:none;stroke:#f99608;stroke-miterlimit:10;stroke-width:0.577889680862427px"/><path d="M198.36,91.71s8.46-8.7,14.82,0" style="fill:none;stroke:#f99608;stroke-miterlimit:10;stroke-width:0.577889680862427px"/><path d="M256,98.56a75.25,75.25,0,0,1,22.66-7.21c1.1-.17.63-1.84-.46-1.67a76.88,76.88,0,0,0-23.08,7.38c-1,.5-.12,2,.88,1.5Z" style="fill:#f99608"/><path d="M152.46,96.36Q140,92.6,127.92,87.8c-1-.41-1.49,1.27-.46,1.67Q139.54,94.27,152,98a.87.87,0,0,0,.46-1.67Z" style="fill:#f99608"/></g></g><g id="b7b44394-9aeb-4c28-8eba-3549ddcc19a0" data-name="arms"><path d="M114.85,218.47s15.12,11.27,5.64,23.65S22,289.5,22,289.5s-13,10-19,1,0-13,10-20,89.71-62.06,101.85-52" style="stroke:#fff;stroke-miterlimit:10;stroke-width:0.577889680862427px"/><path d="M284,211.5s-17,7-2,19,44,30,57,40,19,26,28,26,24-6,17-16-32-25-50-45S297,198.5,284,211.5Z" style="stroke:#fff;stroke-miterlimit:10;stroke-width:0.577889680862427px"/><path d="M306.18,212.28A21.76,21.76,0,0,1,295.35,230a1.5,1.5,0,0,0,1.52,2.59,24.83,24.83,0,0,0,12.31-20.31c.08-1.93-2.92-1.92-3,0Z" style="fill:#fff"/><path d="M320.9,224.94A26.22,26.22,0,0,1,299,240.7c-1.91.13-1.93,3.14,0,3a29.36,29.36,0,0,0,24.8-18,1.51,1.51,0,0,0-1.05-1.85,1.54,1.54,0,0,0-1.85,1.05Z" style="fill:#fff"/><path d="M335.1,238.78c-.79,7.69-8.19,13.89-15.83,13.63-1.93-.06-1.93,2.94,0,3,9.39.32,17.88-7.36,18.83-16.63a1.5,1.5,0,1,0-3,0Z" style="fill:#fff"/><path d="M349.6,252c.15-.39,0-.05,0,0l-.13.28c-.08.17-.17.33-.26.5-.19.33-.39.65-.61,1l-.15.21c-.19.26.18-.22,0,0l-.4.47c-.26.28-.52.55-.8.81l-.43.37a1.56,1.56,0,0,1-.2.16c.32-.18.05,0,0,0-.3.22-.62.43-.94.62s-.67.36-1,.52.26-.1,0,0l-.29.11-.59.2a1.5,1.5,0,0,0,.8,2.89,12.72,12.72,0,0,0,8-7.37,1.5,1.5,0,0,0-1.05-1.84A1.54,1.54,0,0,0,349.6,252Z" style="fill:#fff"/><path d="M100.23,220.3c-1,5.87-1,12.09,1.24,17.69a20.92,20.92,0,0,0,9.87,11.17c1.72.86,3.25-1.73,1.51-2.59-9.42-4.65-11.27-16-9.72-25.47.31-1.89-2.58-2.71-2.9-.8Z" style="fill:#fff"/><path d="M79.13,230.27c-.36,5.53-.62,11.35,1.58,16.58,1.78,4.23,5.08,7.86,9.58,9.16a1.51,1.51,0,0,0,.8-2.9c-3.81-1.1-6.55-4.41-7.88-8-1.72-4.73-1.4-9.88-1.08-14.8.12-1.93-2.88-1.92-3,0Z" style="fill:#fff"/><path d="M53.91,242.91a13.38,13.38,0,0,0,7.65,15.78,1.51,1.51,0,0,0,1.84-1.05,1.53,1.53,0,0,0-1-1.84c-4.52-1.91-6.89-7.55-5.55-12.09.55-1.86-2.34-2.65-2.89-.8Z" style="fill:#fff"/><path d="M34.51,255.64a10.53,10.53,0,0,0,5.23,9.23,1.5,1.5,0,1,0,1.51-2.59c-.17-.1-.34-.2-.5-.31l-.2-.13s-.3-.22-.13-.1l-.13-.1-.22-.19-.39-.37c-.13-.14-.27-.28-.4-.43l-.19-.23c-.14-.16.21.29,0,0a10.09,10.09,0,0,1-.61-.94c-.08-.15-.17-.31-.24-.47s-.09-.18-.13-.27.13.33,0,0a7.87,7.87,0,0,1-.35-1.07l-.12-.51c0-.1,0-.2,0-.29s0,.28,0,0a9.4,9.4,0,0,1-.05-1.18,1.5,1.5,0,0,0-1.5-1.5,1.52,1.52,0,0,0-1.5,1.5Z" style="fill:#fff"/></g><g id="a5f8a091-30dc-4a7d-ba80-8551cb102484" data-name="arm-r"><path d="M380,275.5s16,15,0,19c-11.64,2.91-21,3-33-1s-84-23-84-23-12-11,0-19c0,0,39.21,1.3,49,2S366,260.5,380,275.5Z" style="stroke:#fff;stroke-miterlimit:10;stroke-width:0.577889680862427px"/><path d="M376.57,275.67c.74,4,1.58,8.33.25,12.3a8.4,8.4,0,0,1-6.29,5.92c-1.9.32-1.1,3.21.79,2.9,3.95-.67,6.8-3.89,8.19-7.48,1.79-4.6.82-9.76-.05-14.44-.35-1.9-3.24-1.09-2.89.8Z" style="fill:#fff"/><path d="M363.68,267.31c2,5.27,4.15,10.81,3.82,16.54-.26,4.42-2.21,9-6.14,11.28a1.5,1.5,0,0,0,1.51,2.59c4.57-2.68,6.95-7.66,7.54-12.78.72-6.35-1.63-12.6-3.83-18.43-.68-1.78-3.58-1-2.9.8Z" style="fill:#fff"/><path d="M346.84,260.65c4,4.87,6.8,11,6.65,17.35-.12,5.55-2.69,11.17-7.4,14.27-1.6,1.06-.1,3.65,1.52,2.59a20.65,20.65,0,0,0,8.87-16.49c.3-7.32-3-14.27-7.52-19.84-1.22-1.5-3.33.64-2.12,2.12Z" style="fill:#fff"/><path d="M329.74,256.39a31.87,31.87,0,0,1,7.89,18c.27,2.91.3,6.5-2.11,8.58-2.2,1.9-5.38,2.33-7.88,3.74a1.5,1.5,0,0,0,1.51,2.59c3-1.66,6.63-2.12,9-4.72s2.77-6.37,2.51-9.77a35.28,35.28,0,0,0-8.81-20.58c-1.28-1.44-3.4.68-2.12,2.12Z" style="fill:#fff"/><path d="M313.69,255.34c2.55,5.13,6.32,9.92,7.23,15.72.68,4.34-1.14,10.32-6.23,11a1.54,1.54,0,0,0-1.5,1.5,1.51,1.51,0,0,0,1.5,1.5c6-.78,9.53-6.45,9.39-12.2-.17-7.13-4.76-12.9-7.8-19-.86-1.73-3.45-.21-2.59,1.51Z" style="fill:#fff"/></g><g id="f02c3349-1dcc-4aaa-a000-d1e6cfbe5121" data-name="arm-l"><path d="M13,270.5s-18,5-10,20c10.86,20.37,117-25,117-25s11,2,11-3,1.18-15.23-8-12S61,248.5,13,270.5Z" style="stroke:#fff;stroke-miterlimit:10;stroke-width:0.577889680862427px"/><path d="M21.35,266.48c-.94,5.94-.79,12.11,1.75,17.66A19.18,19.18,0,0,0,34,294.35c1.82.64,2.61-2.26.79-2.89-9.82-3.44-12-15.1-10.58-24.18.3-1.89-2.59-2.71-2.89-.8Z" style="fill:#fff"/><path d="M8.92,271.63a25.56,25.56,0,0,0,8,24.5c1.45,1.26,3.58-.85,2.12-2.12a22.56,22.56,0,0,1-7.24-21.59c.41-1.88-2.48-2.68-2.89-.79Z" style="fill:#fff"/><path d="M39.91,260.29c-2.59,11.14,4.59,20.74,11.17,28.9,1.22,1.5,3.33-.63,2.12-2.12-5.83-7.23-12.7-16.05-10.4-26,.44-1.88-2.45-2.68-2.89-.8Z" style="fill:#fff"/><path d="M62.7,256.2a37.13,37.13,0,0,0,7.13,26.52c1.14,1.52,3.75,0,2.59-1.52a34.64,34.64,0,0,1-6.72-25c.23-1.91-2.77-1.89-3,0Z" style="fill:#fff"/><path d="M85.81,254A24.86,24.86,0,0,0,93,274.7c1.37,1.35,3.5-.77,2.12-2.12A22.1,22.1,0,0,1,88.81,254c.11-.8-.77-1.5-1.5-1.5a1.54,1.54,0,0,0-1.5,1.5Z" style="fill:#fff"/><path d="M104.9,252.82a29.39,29.39,0,0,0,3.14,15.9c.88,1.72,3.47.21,2.59-1.51a26.52,26.52,0,0,1-2.73-14.39,1.5,1.5,0,0,0-1.5-1.5,1.54,1.54,0,0,0-1.5,1.5Z" style="fill:#fff"/></g><g id="fe3ba5bc-85db-47c0-a271-60c3c9c56444" data-name="laptop"><path d="M109.8,164.49s-6.36-1.73-4.62,6.36S115.58,265.94,115,281v9.82c0,1.16,2.31,5.21,7.51,5.21s109.8-2.05,121.94-2.63,42.18-1.73,50.27-1.15,8.09-5.78,7.52-11.56S295.3,224,294.15,200.9s1.15-38.72-9.25-39.87-85.53-1.74-119.62,1.73S115,165.07,109.8,164.49Z" style="fill:#f2f2f2;stroke:#000;stroke-miterlimit:10;stroke-width:0.577889680862427px"/><path d="M195.9,214.77s-7.51,0-5.77,8.09,13.87,9.82,16.18,3.47S208.62,213.61,195.9,214.77Z"/><path d="M202.26,197.43s-7.51,4.63-5.2,11,6.36,0,6.36,0S205.73,206.1,202.26,197.43Z"/></g></svg>